<?xml version="1.0" encoding="UTF-8" standalone="no"?>
<!DOCTYPE svg PUBLIC "-//W3C//DTD SVG 1.1//EN" "http://www.w3.org/Graphics/SVG/1.1/DTD/svg11.dtd">
<svg width="100%" height="100%" viewBox="0 0 100 100" version="1.1" xmlns="http://www.w3.org/2000/svg" xmlns:xlink="http://www.w3.org/1999/xlink" xml:space="preserve" xmlns:serif="http://www.serif.com/" style="fill-rule:evenodd;clip-rule:evenodd;stroke-linecap:round;stroke-linejoin:round;stroke-miterlimit:1.5;">
    <g transform="matrix(1,0,0,1,-2087.363281,-599.760167)">
        <g transform="matrix(1,0,0,1,1970,-0)">
            <g transform="matrix(0.911438,0,0,0.911438,10.393887,53.115755)">
                <path d="M227.08,627.189L227.08,682.048C227.08,697.186 214.789,709.477 199.651,709.477L144.792,709.477C129.654,709.477 117.363,697.186 117.363,682.048L117.363,627.189C117.363,612.051 129.654,599.76 144.792,599.76L199.651,599.76C214.789,599.76 227.08,612.051 227.08,627.189Z" style="fill:rgb(48,46,125);"/>
            </g>
        </g>
        <g transform="matrix(1,0,0,1,1970,-0)">
            <g transform="matrix(0.588147,0,0,0.588147,-450.336056,-92.835277)">
                <g transform="matrix(1,0,0,1,32.851392,11.584032)">
                    <path d="M1017.395,1205.045C1031.68,1205.045 1043.277,1216.642 1043.277,1230.927C1043.277,1245.212 1031.68,1256.81 1017.395,1256.81C1003.11,1256.81 991.513,1245.212 991.513,1230.927C991.513,1216.642 1003.11,1205.045 1017.395,1205.045ZM977.168,1308.575C977.921,1287.019 995.657,1269.751 1017.395,1269.751C1039.133,1269.751 1056.869,1287.019 1057.622,1308.575L977.168,1308.575Z" style="fill:none;stroke:rgb(206,203,230);stroke-width:6.74px;"/>
                </g>
                <g transform="matrix(1,0,0,1,7.501275,0)">
                    <g transform="matrix(-1,0,0,1,2035.251922,0)">
                        <path d="M1017.395,1269.751C1039.133,1269.751 1056.869,1287.019 1057.622,1308.575L1043.277,1308.575" style="fill:none;stroke:rgb(206,203,230);stroke-width:6.74px;"/>
                    </g>
                    <g transform="matrix(1,0,0,1,50.238339,0)">
                        <path d="M1017.395,1269.751C1039.133,1269.751 1056.869,1287.019 1057.622,1308.575L1043.277,1308.575" style="fill:none;stroke:rgb(206,203,230);stroke-width:6.74px;"/>
                    </g>
                    <g transform="matrix(-1,0,0,1,2035.251922,0)">
                        <path d="M1005.181,1208.106C1008.82,1206.153 1012.979,1205.045 1017.395,1205.045C1031.68,1205.045 1043.277,1216.642 1043.277,1230.927C1043.277,1242.135 1036.138,1251.689 1026.162,1255.285" style="fill:none;stroke:rgb(206,203,230);stroke-width:6.74px;"/>
                    </g>
                    <g transform="matrix(1,0,0,1,50.238339,0)">
                        <path d="M1005.181,1208.106C1008.82,1206.153 1012.979,1205.045 1017.395,1205.045C1031.68,1205.045 1043.277,1216.642 1043.277,1230.927C1043.277,1242.135 1036.138,1251.689 1026.162,1255.285" style="fill:none;stroke:rgb(206,203,230);stroke-width:6.74px;"/>
                    </g>
                </g>
            </g>
        </g>
    </g>
</svg>
