<?xml version="1.0" encoding="UTF-8" standalone="no"?><!DOCTYPE svg PUBLIC "-//W3C//DTD SVG 1.1//EN" "http://www.w3.org/Graphics/SVG/1.1/DTD/svg11.dtd"><svg width="100%" height="100%" viewBox="0 0 514 457" version="1.1" xmlns="http://www.w3.org/2000/svg" xmlns:xlink="http://www.w3.org/1999/xlink" xml:space="preserve" xmlns:serif="http://www.serif.com/" style="fill-rule:evenodd;clip-rule:evenodd;stroke-linecap:round;stroke-linejoin:round;stroke-miterlimit:1.5;"><g><path d="M256.639,56.037c53.531,0 96.991,43.46 96.991,96.991c0,53.531 -43.46,96.991 -96.991,96.991c-53.531,0 -96.991,-43.46 -96.991,-96.991c0,-53.531 43.46,-96.991 96.991,-96.991Zm-150.747,387.965c2.823,-80.776 69.288,-145.487 150.747,-145.487c81.459,0 147.923,64.711 150.747,145.487l-301.493,0Z" style="fill:none;stroke:#302e7d;stroke-width:25.25px;"/><g><path d="M163.374,255.105c-81.459,0 -147.923,64.711 -150.747,145.487l53.756,0" style="fill:none;stroke:#302e7d;stroke-width:25.25px;"/><path d="M349.905,255.105c81.459,0 147.923,64.711 150.747,145.487l-53.756,0" style="fill:none;stroke:#302e7d;stroke-width:25.25px;"/><path d="M209.144,24.1c-13.637,-7.32 -29.222,-11.473 -45.77,-11.473c-53.531,0 -96.991,43.46 -96.991,96.991c0,42.001 26.755,77.803 64.137,91.276" style="fill:none;stroke:#302e7d;stroke-width:25.25px;"/><path d="M304.134,24.1c13.637,-7.32 29.222,-11.473 45.77,-11.473c53.531,0 96.991,43.46 96.991,96.991c0,42.001 -26.755,77.803 -64.137,91.276" style="fill:none;stroke:#302e7d;stroke-width:25.25px;"/></g></g></svg>