<?xml version="1.0" encoding="UTF-8" standalone="no"?><!DOCTYPE svg PUBLIC "-//W3C//DTD SVG 1.1//EN" "http://www.w3.org/Graphics/SVG/1.1/DTD/svg11.dtd"><svg width="100%" height="100%" viewBox="0 0 1159 266" version="1.1" xmlns="http://www.w3.org/2000/svg" xmlns:xlink="http://www.w3.org/1999/xlink" xml:space="preserve" xmlns:serif="http://www.serif.com/" style="fill-rule:evenodd;clip-rule:evenodd;stroke-linecap:round;stroke-linejoin:round;stroke-miterlimit:10;"><g><path d="M554.829,7.846l0,153.735c0,36.164 -26.044,67.665 -64.5,84.004c-17.886,7.623 -38.458,11.95 -60.362,11.95c-21.906,0 -42.479,-4.327 -60.362,-11.95c-38.458,-16.339 -64.502,-47.84 -64.502,-84.004l0,-153.77l64.502,0l0,140.69c0,27.826 27.018,50.373 60.362,50.373c33.344,0 60.362,-22.547 60.362,-50.373l0,-140.655l64.5,0Z" style="fill:none;fill-rule:nonzero;stroke:#302e7d;stroke-width:15.62px;"/><path d="M66.472,132.673c0,33.344 22.547,60.362 50.373,60.362l140.655,0l0,64.5l-153.735,0c-36.162,0 -67.663,-26.042 -84.002,-64.5c-7.623,-17.886 -11.952,-38.458 -11.952,-60.362c0,-21.904 4.329,-42.477 11.952,-60.362c16.339,-38.458 47.84,-64.5 84.002,-64.5l153.772,0l0,64.5l-140.692,0c-27.826,0 -50.373,27.018 -50.373,60.362Z" style="fill:none;fill-rule:nonzero;stroke:#302e7d;stroke-width:15.62px;"/><path d="M667.774,72.311l0,28.088l137.658,0l0,64.5l-137.658,0l0,28.137l185.189,0l0,64.5l-249.689,0l0,-249.689l0.035,0l0,-0.035l249.689,0l0,64.5l-185.225,0Z" style="fill:none;fill-rule:nonzero;stroke:#302e7d;stroke-width:15.62px;"/><g><path d="M977.653,248.047c-3.481,-15.498 -2.794,-32.104 2.779,-48.041c1.248,-1.076 2.466,-2.232 3.667,-3.433c9.693,-9.693 16.638,-21.086 20.836,-33.214c0.391,-0.359 0.797,-0.719 1.203,-1.062c3.589,2.357 7.648,4.073 12.003,4.979c0.047,0.547 0.094,1.078 0.109,1.623c-5.588,11.552 -8.709,24.505 -8.693,38.193c0,1.64 0.045,3.278 0.141,4.901c-7.32,15.281 -18.591,27.533 -32.044,36.055Z" style="fill:none;fill-rule:nonzero;stroke:#302e7d;stroke-width:15.62px;"/><path d="M951.011,116.8c-1.654,0 -3.294,0.047 -4.917,0.141c-15.25,-7.32 -27.5,-18.589 -36.023,-32.044c15.5,-3.495 32.075,-2.792 48.01,2.763c1.109,1.25 2.263,2.482 3.466,3.685c9.691,9.693 21.102,16.654 33.245,20.852c0.342,0.391 0.685,0.781 1.029,1.17c-2.372,3.606 -4.073,7.664 -4.995,12.018c-0.547,0.047 -1.076,0.078 -1.607,0.109c-11.55,-5.586 -24.521,-8.709 -38.208,-8.693Z" style="fill:none;fill-rule:nonzero;stroke:#302e7d;stroke-width:15.62px;"/><path d="M951.042,148.718c-1.701,0 -3.403,-0.047 -5.088,-0.141c-16.825,-0.953 -32.401,-6.649 -45.388,-15.763c13.018,-9.177 28.641,-14.922 45.529,-15.875c1.623,-0.094 3.263,-0.141 4.917,-0.141c13.688,-0.016 26.659,3.107 38.208,8.695c0.484,0.234 0.967,0.469 1.451,0.717c-0.359,1.89 -0.56,3.841 -0.592,5.823c-0.047,2.466 0.154,4.87 0.607,7.195c-0.453,0.234 -0.904,0.453 -1.357,0.672c-11.565,5.633 -24.552,8.802 -38.286,8.818Z" style="fill:none;fill-rule:nonzero;stroke:#302e7d;stroke-width:15.62px;"/><path d="M910.118,180.574c8.474,-13.406 20.649,-24.661 35.836,-31.997c1.685,0.094 3.386,0.141 5.088,0.141c13.735,-0.016 26.721,-3.183 38.286,-8.818c0.498,0.016 0.998,0.062 1.513,0.094c0.906,4.354 2.622,8.398 4.979,12.003c-0.312,0.391 -0.656,0.781 -1,1.156c-12.159,4.182 -23.583,11.143 -33.292,20.836c-1.248,1.248 -2.466,2.529 -3.589,3.839c-15.873,5.526 -32.388,6.198 -47.823,2.747Z" style="fill:none;fill-rule:nonzero;stroke:#302e7d;stroke-width:15.62px;"/><path d="M937.135,220.951c2.7,-15.56 9.63,-30.56 20.805,-43.125c1.125,-1.31 2.341,-2.591 3.591,-3.839c9.708,-9.693 21.133,-16.654 33.292,-20.836c0.482,-0.187 0.967,-0.344 1.451,-0.5c2.45,3.604 5.573,6.727 9.177,9.193c-0.156,0.5 -0.328,1.013 -0.515,1.513c-4.198,12.128 -11.143,23.521 -20.836,33.214c-1.201,1.203 -2.419,2.357 -3.667,3.435c-12.596,11.268 -27.643,18.245 -43.297,20.945Z" style="fill:none;fill-rule:nonzero;stroke:#302e7d;stroke-width:15.62px;"/><path d="M996.258,112.711c-0.5,-0.172 -0.984,-0.328 -1.466,-0.515c-12.143,-4.198 -23.552,-11.159 -33.245,-20.852c-1.203,-1.201 -2.357,-2.435 -3.466,-3.683c-11.253,-12.596 -18.214,-27.643 -20.93,-43.281c15.591,2.7 30.591,9.63 43.156,20.82c1.295,1.14 2.56,2.326 3.808,3.575c9.708,9.706 16.654,21.117 20.836,33.276c0.187,0.482 0.359,0.982 0.5,1.466c-3.604,2.45 -6.727,5.573 -9.193,9.193Z" style="fill:none;fill-rule:nonzero;stroke:#302e7d;stroke-width:15.62px;"/><path d="M1006.122,103.081c-0.391,-0.328 -0.781,-0.672 -1.17,-1.031c-4.184,-12.157 -11.13,-23.568 -20.838,-33.276c-1.248,-1.248 -2.513,-2.433 -3.808,-3.573c-5.541,-15.873 -6.227,-32.401 -2.779,-47.838c13.422,8.476 24.677,20.664 31.997,35.836c-0.094,1.685 -0.141,3.388 -0.141,5.088c0.016,13.735 3.183,26.721 8.834,38.271c-0.016,0.515 -0.062,1.013 -0.094,1.529c-4.354,0.906 -8.398,2.622 -12.003,4.995Z" style="fill:none;fill-rule:nonzero;stroke:#302e7d;stroke-width:15.62px;"/><path d="M1044.72,103.065c-3.591,-2.372 -7.648,-4.089 -12.003,-4.995c-0.047,-0.547 -0.078,-1.076 -0.109,-1.607c5.588,-11.55 8.709,-24.521 8.693,-38.208c0,-1.638 -0.047,-3.263 -0.141,-4.87c7.305,-15.281 18.591,-27.547 32.06,-36.07c3.481,15.5 2.794,32.091 -2.794,48.026c-1.248,1.091 -2.466,2.247 -3.667,3.448c-9.693,9.677 -16.638,21.072 -20.838,33.214c-0.389,0.375 -0.795,0.734 -1.201,1.062Z" style="fill:none;fill-rule:nonzero;stroke:#302e7d;stroke-width:15.62px;"/><path d="M1018.889,97.93c-0.234,-0.453 -0.469,-0.906 -0.672,-1.373c-5.649,-11.552 -8.818,-24.536 -8.834,-38.271c0,-1.703 0.047,-3.403 0.141,-5.088c0.953,-16.825 6.649,-32.401 15.779,-45.388c9.193,13.016 14.922,28.656 15.859,45.575c0.094,1.607 0.141,3.23 0.141,4.87c0.016,13.688 -3.107,26.657 -8.695,38.208c-0.234,0.482 -0.469,0.967 -0.717,1.451c-1.89,-0.359 -3.825,-0.562 -5.807,-0.594c-2.466,-0.047 -4.87,0.156 -7.195,0.609Z" style="fill:none;fill-rule:nonzero;stroke:#302e7d;stroke-width:15.62px;"/><path d="M1054.6,112.711c-2.45,-3.604 -5.573,-6.742 -9.193,-9.208c0.156,-0.5 0.328,-1 0.515,-1.498c4.198,-12.143 11.143,-23.538 20.836,-33.214c1.201,-1.203 2.419,-2.357 3.667,-3.45c12.596,-11.253 27.658,-18.229 43.312,-20.945c-2.7,15.591 -9.646,30.576 -20.82,43.141c-1.14,1.295 -2.341,2.575 -3.591,3.823c-9.708,9.708 -21.148,16.669 -33.307,20.867c-0.467,0.187 -0.951,0.344 -1.42,0.484Z" style="fill:none;fill-rule:nonzero;stroke:#302e7d;stroke-width:15.62px;"/><path d="M1061.545,125.447c-0.5,-0.016 -1.015,-0.062 -1.513,-0.094c-0.922,-4.354 -2.622,-8.396 -4.995,-12.003c0.312,-0.375 0.64,-0.75 0.982,-1.123c12.159,-4.2 23.599,-11.161 33.307,-20.869c1.25,-1.248 2.45,-2.529 3.591,-3.823c15.873,-5.526 32.386,-6.211 47.838,-2.763c-8.476,13.422 -20.666,24.677 -35.851,31.997c-1.687,-0.094 -3.388,-0.141 -5.088,-0.141c-13.719,0.016 -26.706,3.183 -38.271,8.818Z" style="fill:none;fill-rule:nonzero;stroke:#302e7d;stroke-width:15.62px;"/><path d="M1113.723,220.982c-15.591,-2.7 -30.576,-9.646 -43.141,-20.836c-1.295,-1.125 -2.575,-2.326 -3.823,-3.575c-9.708,-9.708 -16.669,-21.133 -20.867,-33.307c-0.172,-0.467 -0.344,-0.951 -0.484,-1.435c3.604,-2.45 6.711,-5.557 9.193,-9.162c0.515,0.156 1.013,0.328 1.529,0.515c12.128,4.182 23.505,11.128 33.198,20.82c1.203,1.201 2.372,2.435 3.466,3.683c11.253,12.596 18.214,27.658 20.93,43.297Z" style="fill:none;fill-rule:nonzero;stroke:#302e7d;stroke-width:15.62px;"/><path d="M1092.792,177.686c-1.093,-1.248 -2.263,-2.482 -3.466,-3.683c-9.691,-9.693 -21.07,-16.638 -33.198,-20.822c-0.373,-0.404 -0.732,-0.81 -1.076,-1.216c2.372,-3.591 4.073,-7.648 4.995,-12.003c0.531,-0.047 1.076,-0.078 1.607,-0.109c11.55,5.588 24.505,8.709 38.193,8.693c1.638,0 3.263,-0.047 4.885,-0.141c15.281,7.305 27.547,18.591 36.07,32.044c-15.5,3.495 -32.091,2.794 -48.01,-2.763Z" style="fill:none;fill-rule:nonzero;stroke:#302e7d;stroke-width:15.62px;"/><path d="M1099.847,148.547c-13.688,0.016 -26.643,-3.107 -38.193,-8.693c-0.484,-0.234 -0.967,-0.469 -1.451,-0.719c0.359,-1.888 0.56,-3.839 0.592,-5.823c0.047,-2.466 -0.17,-4.87 -0.623,-7.195c0.453,-0.232 0.904,-0.451 1.373,-0.67c11.565,-5.635 24.552,-8.804 38.271,-8.82c1.701,0 3.403,0.047 5.088,0.141c16.841,0.953 32.417,6.651 45.388,15.765c-13.002,9.208 -28.641,14.935 -45.56,15.873c-1.623,0.094 -3.247,0.141 -4.885,0.141Z" style="fill:none;fill-rule:nonzero;stroke:#302e7d;stroke-width:15.62px;"/><path d="M1025.569,257.536c-9.193,-13.002 -14.922,-28.625 -15.873,-45.544c-0.094,-1.623 -0.141,-3.261 -0.141,-4.901c-0.016,-13.688 3.105,-26.643 8.693,-38.193c0.234,-0.482 0.469,-0.982 0.719,-1.466c1.888,0.359 3.839,0.562 5.821,0.594c2.466,0.047 4.87,-0.156 7.195,-0.609c0.234,0.453 0.453,0.906 0.672,1.373c5.651,11.552 8.802,24.536 8.818,38.271c0,1.703 -0.047,3.388 -0.141,5.057c-0.935,16.841 -6.633,32.433 -15.763,45.419Z" style="fill:none;fill-rule:nonzero;stroke:#302e7d;stroke-width:15.62px;"/><path d="M1073.329,247.984c-13.422,-8.474 -24.677,-20.68 -31.995,-35.867c0.092,-1.669 0.139,-3.355 0.139,-5.057c-0.016,-13.735 -3.167,-26.721 -8.818,-38.271c0.016,-0.514 0.062,-1.029 0.094,-1.529c4.354,-0.906 8.398,-2.622 12.003,-4.979c0.391,0.312 0.765,0.64 1.14,0.984c4.198,12.174 11.159,23.599 20.867,33.307c1.248,1.248 2.529,2.45 3.823,3.573c5.526,15.888 6.198,32.401 2.747,47.838Z" style="fill:none;fill-rule:nonzero;stroke:#302e7d;stroke-width:15.62px;"/></g></g></svg>