<?xml version="1.0" encoding="UTF-8" standalone="no"?><!DOCTYPE svg PUBLIC "-//W3C//DTD SVG 1.1//EN" "http://www.w3.org/Graphics/SVG/1.1/DTD/svg11.dtd"><svg width="100%" height="100%" viewBox="0 0 507 459" version="1.1" xmlns="http://www.w3.org/2000/svg" xmlns:xlink="http://www.w3.org/1999/xlink" xml:space="preserve" xmlns:serif="http://www.serif.com/" style="fill-rule:evenodd;clip-rule:evenodd;stroke-linecap:round;stroke-linejoin:round;stroke-miterlimit:1.5;"><g><path d="M172.64,222.971c-8.08,-10.366 -12.872,-23.256 -12.872,-37.218c0,-34.201 28.75,-61.968 64.162,-61.968c31.893,0 58.382,22.522 63.332,51.983c4.95,-29.46 31.439,-51.983 63.332,-51.983c35.412,0 64.162,27.767 64.162,61.968c0,13.962 -4.791,26.852 -12.872,37.218l-114.622,140.709l-114.622,-140.709Z" style="fill:none;stroke:#302e7d;stroke-width:27.08px;"/><path d="M253.038,443.614c-7.819,0.86 -15.763,1.302 -23.81,1.302c-119.041,0 -215.687,-96.646 -215.687,-215.687c0,-119.041 96.646,-215.687 215.687,-215.687c8.046,0 15.991,0.442 23.81,1.302c-107.855,11.866 -191.877,103.391 -191.877,214.385c0,110.994 84.022,202.519 191.877,214.385Z" style="fill:none;stroke:#302e7d;stroke-width:27.08px;"/><path d="M253.038,14.843c7.819,-0.86 15.763,-1.302 23.81,-1.302c119.041,0 215.687,96.646 215.687,215.687c0,119.041 -96.646,215.687 -215.687,215.687c-8.046,0 -15.991,-0.442 -23.81,-1.302c-107.855,-11.866 -191.877,-103.391 -191.877,-214.385c0,-110.994 84.022,-202.519 191.877,-214.385Z" style="fill:none;stroke:#302e7d;stroke-width:27.08px;"/><path d="M276.848,13.542l-48.474,0" style="fill:none;stroke:#302e7d;stroke-width:27.08px;"/><path d="M277.275,444.916l-48.474,0" style="fill:none;stroke:#302e7d;stroke-width:27.08px;"/></g></svg>