<?xml version="1.0" encoding="UTF-8" standalone="no"?>
<!DOCTYPE svg PUBLIC "-//W3C//DTD SVG 1.1//EN" "http://www.w3.org/Graphics/SVG/1.1/DTD/svg11.dtd">
<svg width="100%" height="100%" viewBox="0 0 100 100" version="1.1" xmlns="http://www.w3.org/2000/svg" xmlns:xlink="http://www.w3.org/1999/xlink" xml:space="preserve" xmlns:serif="http://www.serif.com/" style="fill-rule:evenodd;clip-rule:evenodd;stroke-linecap:round;stroke-linejoin:round;stroke-miterlimit:1.5;">
    <g transform="matrix(1,0,0,1,-2087.363281,-901.290167)">
        <g transform="matrix(1,0,0,1,1970,-0)">
            <g transform="matrix(0.911438,0,0,0.911438,10.393887,354.645755)">
                <path d="M227.08,627.189L227.08,682.048C227.08,697.186 214.789,709.477 199.651,709.477L144.792,709.477C129.654,709.477 117.363,697.186 117.363,682.048L117.363,627.189C117.363,612.051 129.654,599.76 144.792,599.76L199.651,599.76C214.789,599.76 227.08,612.051 227.08,627.189Z" style="fill:rgb(48,46,125);"/>
            </g>
        </g>
        <g transform="matrix(1,0,0,1,1970,-0)">
            <g transform="matrix(0.853515,0,0,0.853515,24.516237,-74.50114)">
                <g transform="matrix(0.413017,0,0,0.398894,-71.487001,703.006742)">
                    <path d="M544.796,1247.85C541.428,1243.376 539.431,1237.813 539.431,1231.788C539.431,1217.028 551.414,1205.045 566.174,1205.045C579.467,1205.045 590.508,1214.764 592.571,1227.478C594.634,1214.764 605.675,1205.045 618.968,1205.045C633.728,1205.045 645.711,1217.028 645.711,1231.788C645.711,1237.813 643.714,1243.376 640.346,1247.85L592.571,1308.575L544.796,1247.85Z" style="fill:none;stroke:rgb(206,203,230);stroke-width:11.48px;"/>
                </g>
                <g transform="matrix(0.717281,0,0,0.717281,-452.031231,300.357588)">
                    <path d="M863.531,1308.262C861.654,1308.469 859.748,1308.575 857.817,1308.575C829.247,1308.575 806.052,1285.379 806.052,1256.81C806.052,1228.24 829.247,1205.045 857.817,1205.045C859.748,1205.045 861.654,1205.151 863.531,1205.357C837.646,1208.205 817.48,1230.171 817.48,1256.81C817.48,1283.448 837.646,1305.414 863.531,1308.262Z" style="fill:none;stroke:rgb(206,203,230);stroke-width:6.5px;"/>
                </g>
                <g transform="matrix(0.717281,0,0,0.717281,-463.727315,300.357588)">
                    <path d="M879.837,1205.357C881.714,1205.151 883.62,1205.045 885.551,1205.045C914.121,1205.045 937.316,1228.24 937.316,1256.81C937.316,1285.379 914.121,1308.575 885.551,1308.575C883.62,1308.575 881.714,1308.469 879.837,1308.262C853.952,1305.414 833.786,1283.448 833.786,1256.81C833.786,1230.171 853.952,1208.205 879.837,1205.357Z" style="fill:none;stroke:rgb(206,203,230);stroke-width:6.5px;"/>
                </g>
                <g transform="matrix(0.207155,0,0,0.717281,-11.984155,300.357588)">
                    <path d="M885.551,1205.045L845.269,1205.045" style="fill:none;stroke:rgb(206,203,230);stroke-width:8.83px;"/>
                </g>
                <g transform="matrix(0.207155,0,0,0.717281,-11.91056,374.61757)">
                    <path d="M885.551,1205.045L845.269,1205.045" style="fill:none;stroke:rgb(206,203,230);stroke-width:8.83px;"/>
                </g>
            </g>
        </g>
    </g>
</svg>
