<?xml version="1.0" encoding="UTF-8" standalone="no"?><!DOCTYPE svg PUBLIC "-//W3C//DTD SVG 1.1//EN" "http://www.w3.org/Graphics/SVG/1.1/DTD/svg11.dtd"><svg width="100%" height="100%" viewBox="0 0 462 459" version="1.1" xmlns="http://www.w3.org/2000/svg" xmlns:xlink="http://www.w3.org/1999/xlink" xml:space="preserve" xmlns:serif="http://www.serif.com/" style="fill-rule:evenodd;clip-rule:evenodd;stroke-linecap:round;stroke-linejoin:round;stroke-miterlimit:1.5;"><g><rect x="13.542" y="80.809" width="434.499" height="364.107" style="fill:none;stroke:#302e7d;stroke-width:27.08px;"/><path d="M116.604,104.469l0,-90.928" style="fill:none;stroke:#302e7d;stroke-width:27.08px;"/><path d="M344.978,104.469l0,-90.928" style="fill:none;stroke:#302e7d;stroke-width:27.08px;"/><path d="M13.542,145.419l434.499,0" style="fill:none;stroke:#302e7d;stroke-width:27.08px;"/><rect x="69.861" y="195.159" width="79.987" height="79.987" style="fill:none;stroke:#302e7d;stroke-width:27.08px;"/><path d="M270.785,275.147l-79.987,0l0,-79.987l79.987,0l0,79.987Z" style="fill:none;stroke:#302e7d;stroke-width:27.08px;"/><path d="M270.785,396.084l-79.987,0l0,-79.987l79.987,0l0,79.987Z" style="fill:none;stroke:#302e7d;stroke-width:27.08px;"/><path d="M391.722,275.147l-79.987,0l0,-79.987l79.987,0l0,79.987Z" style="fill:none;stroke:#302e7d;stroke-width:27.08px;"/><path d="M391.722,396.084l-79.987,0l0,-79.987l79.987,0l0,79.987Z" style="fill:none;stroke:#302e7d;stroke-width:27.08px;"/><rect x="69.861" y="316.096" width="79.987" height="79.987" style="fill:none;stroke:#302e7d;stroke-width:27.08px;"/></g></svg>