<?xml version="1.0" encoding="UTF-8" standalone="no"?>
<!DOCTYPE svg PUBLIC "-//W3C//DTD SVG 1.1//EN" "http://www.w3.org/Graphics/SVG/1.1/DTD/svg11.dtd">
<svg width="100%" height="100%" viewBox="0 0 100 100" version="1.1" xmlns="http://www.w3.org/2000/svg" xmlns:xlink="http://www.w3.org/1999/xlink" xml:space="preserve" xmlns:serif="http://www.serif.com/" style="fill-rule:evenodd;clip-rule:evenodd;stroke-linecap:round;stroke-linejoin:round;stroke-miterlimit:1.5;">
    <g transform="matrix(1,0,0,1,-2220.316869,168.680068)">
        <g>
            <g transform="matrix(0.911438,0,0,0.911438,2113.347474,-715.32448)">
                <path d="M227.08,627.189L227.08,682.048C227.08,697.186 214.789,709.477 199.651,709.477L144.792,709.477C129.654,709.477 117.363,697.186 117.363,682.048L117.363,627.189C117.363,612.051 129.654,599.76 144.792,599.76L199.651,599.76C214.789,599.76 227.08,612.051 227.08,627.189Z" style="fill:rgb(48,46,125);"/>
            </g>
            <g transform="matrix(0.646692,0,0,0.646692,2118.12987,-1089.878198)">
                <g transform="matrix(1.872472,0,0,1.546332,-4021.072053,1680.251077)">
                    <path d="M2294.209,-135.132L2294.209,-88.945C2290.652,-92.476 2286.192,-95.666 2272.426,-95.335L2272.426,-141.521C2286.192,-141.853 2290.652,-138.663 2294.209,-135.132Z" style="fill:none;stroke:rgb(206,203,230);stroke-width:3.59px;"/>
                </g>
                <g transform="matrix(1.546332,0,0,1.546332,-3279.94215,1680.251077)">
                    <path d="M2272.426,-141.521L2272.426,-141.543C2293.729,-142.855 2300.631,-139.983 2306.137,-136.705L2306.137,-90.519C2304.102,-91.73 2301.876,-92.886 2298.804,-93.796L2298.804,-135.132C2294.496,-138.663 2289.095,-141.853 2272.426,-141.521Z" style="fill:rgb(206,203,230);stroke:rgb(206,203,230);stroke-width:4px;stroke-miterlimit:3;"/>
                </g>
                <g transform="matrix(0.5,0,0,0.862127,-157.749461,404.641384)">
                    <rect x="684.606" y="1225.733" width="98.857" height="82.842" style="fill:none;stroke:rgb(206,203,230);stroke-width:8.74px;"/>
                </g>
            </g>
        </g>
    </g>
</svg>
